<?xml version="1.0" encoding="utf-8"?>
<!-- Generator: Adobe Illustrator 22.1.0, SVG Export Plug-In . SVG Version: 6.00 Build 0)  -->
<svg version="1.1" id="Layer_1" xmlns="http://www.w3.org/2000/svg" xmlns:xlink="http://www.w3.org/1999/xlink" x="0px" y="0px"
	 viewBox="0 0 117.1 36.2" style="enable-background:new 0 0 117.1 36.2;" xml:space="preserve">
<style type="text/css">
	.st0{fill:url(#SVGID_1_);enable-background:new    ;}
	.st1{fill:#1D1D1B;}
</style>
<linearGradient id="SVGID_1_" gradientUnits="userSpaceOnUse" x1="58.7016" y1="35.5455" x2="58.7016" y2="0.6045">
	<stop  offset="0" style="stop-color:#A3783E"/>
	<stop  offset="0.3831" style="stop-color:#FBC66E"/>
	<stop  offset="0.5043" style="stop-color:#F8C36C"/>
	<stop  offset="0.587" style="stop-color:#EFBB67"/>
	<stop  offset="0.6582" style="stop-color:#E0AC5F"/>
	<stop  offset="0.7225" style="stop-color:#CB9852"/>
	<stop  offset="0.7644" style="stop-color:#B88648"/>
	<stop  offset="0.7658" style="stop-color:#B78648"/>
	<stop  offset="0.8028" style="stop-color:#AC7E42"/>
	<stop  offset="0.8548" style="stop-color:#A5793F"/>
	<stop  offset="0.9995" style="stop-color:#A3783E"/>
</linearGradient>
<path class="st0" d="M104.1,35.5H13.3c-6.6,0-12-5.4-12-12V12.6c0-6.6,5.4-12,12-12h90.8c6.6,0,12,5.4,12,12v10.9
	C116.1,30.1,110.7,35.5,104.1,35.5z"/>
<g>
	<path class="st1" d="M25.3,21c0.1,1-0.3,1.9-1,2.6c-0.8,0.6-1.7,0.9-2.7,0.9h-5V12.2h4.8c1,0,2,0.3,2.7,0.9c0.7,0.6,1,1.5,1,2.5
		c0,0.6-0.2,1.2-0.5,1.6c-0.3,0.4-0.7,0.8-1.2,1c0.5,0.2,1,0.5,1.3,1C25.2,19.7,25.4,20.3,25.3,21z M22.7,16.9
		c0.4-0.3,0.6-0.8,0.6-1.3c0-0.5-0.2-1-0.6-1.3c-0.4-0.3-0.9-0.5-1.4-0.5h-2.8v3.5h2.8C21.8,17.4,22.3,17.2,22.7,16.9L22.7,16.9z
		 M23.5,20.9c0-0.5-0.2-1-0.5-1.3C22.5,19.2,22,19,21.5,19h-3v3.8h3c0.5,0,1.1-0.2,1.5-0.5C23.3,21.9,23.5,21.4,23.5,20.9L23.5,20.9
		z"/>
	<path class="st1" d="M36.5,17v2.7c0,0.3,0,0.7-0.1,1c0,0.3-0.1,0.7-0.2,1c-0.1,0.3-0.2,0.5-0.3,0.8c-0.2,0.3-0.3,0.6-0.6,0.8
		c-0.8,0.9-2,1.4-3.2,1.4c-1.2,0-2.4-0.5-3.2-1.3c-0.2-0.2-0.4-0.5-0.6-0.8c-0.1-0.2-0.2-0.5-0.4-0.8c-0.1-0.3-0.2-0.7-0.2-1
		c0-0.4,0-0.8-0.1-1s0-0.7,0-1.3V17c0-0.3,0-0.7,0.1-1c0-0.3,0.1-0.7,0.2-1c0.1-0.3,0.2-0.5,0.4-0.8c0.2-0.3,0.4-0.6,0.6-0.8
		c0.8-0.9,2-1.3,3.2-1.3c1.2,0,2.4,0.5,3.2,1.3c0.2,0.2,0.4,0.5,0.6,0.8c0.2,0.3,0.3,0.5,0.4,0.8c0.1,0.3,0.2,0.7,0.2,1
		C36.5,16.4,36.5,16.7,36.5,17z M34.5,21c0.1-0.9,0.2-1.7,0.1-2.6c0-0.9,0-1.7-0.1-2.6c-0.1-0.5-0.3-0.9-0.6-1.2
		c-0.5-0.5-1.1-0.8-1.8-0.8c-1.2,0-2.2,0.8-2.4,2c-0.2,1.7-0.2,3.5,0,5.2c0.2,1.2,1.2,2,2.4,2c0.7,0,1.4-0.3,1.8-0.8
		C34.2,21.9,34.4,21.4,34.5,21L34.5,21z"/>
	<path class="st1" d="M47.7,17v2.7c0,0.3,0,0.7-0.1,1c0,0.3-0.1,0.7-0.2,1c-0.1,0.3-0.2,0.5-0.3,0.8c-0.2,0.3-0.4,0.6-0.6,0.8
		c-1.8,1.8-4.7,1.8-6.5,0c-0.2-0.2-0.4-0.5-0.6-0.7c-0.1-0.2-0.2-0.5-0.4-0.8c-0.1-0.3-0.2-0.7-0.2-1c0-0.4-0.1-0.8-0.1-1V17
		c0-0.3,0-0.7,0.1-1c0-0.3,0.1-0.7,0.2-1c0.1-0.3,0.2-0.5,0.4-0.8c0.2-0.3,0.3-0.6,0.6-0.8c1.8-1.8,4.7-1.8,6.5,0
		c0.2,0.2,0.4,0.5,0.6,0.8c0.1,0.2,0.2,0.5,0.3,0.8c0.1,0.3,0.2,0.7,0.2,1C47.7,16.4,47.7,16.7,47.7,17z M45.7,21
		c0.2-1.7,0.2-3.5,0-5.2c-0.2-1.3-1.5-2.2-2.9-2c-1,0.2-1.8,1-2,2c-0.2,1.7-0.2,3.5,0,5.2c0.2,1.3,1.5,2.2,2.9,2
		C44.7,22.8,45.5,22,45.7,21z"/>
	<path class="st1" d="M60.1,24.5h-2.2l-3.5-6.1l-2.1,2.5v3.6h-1.9V12.2h1.9v6.2l5-6.2h2.3l-4,4.8L60.1,24.5z"/>
	<path class="st1" d="M75.3,24.5h-1.7l-5.7-8.7v8.7H66V12.2h1.7l5.7,8.7v-8.7h1.9V24.5z"/>
	<path class="st1" d="M86.9,17v2.7c0,0.3,0,0.7-0.1,1c0,0.3-0.1,0.7-0.2,1c-0.1,0.3-0.2,0.5-0.3,0.8c-0.2,0.3-0.4,0.5-0.6,0.8
		c-1.8,1.8-4.7,1.8-6.5,0c-0.2-0.2-0.4-0.5-0.6-0.8c-0.1-0.2-0.2-0.5-0.4-0.8c-0.1-0.3-0.2-0.7-0.2-1c0-0.4-0.1-0.8-0.1-1.1v-2.7
		c0-0.3,0-0.7,0.1-1c0-0.3,0.1-0.7,0.2-1c0.1-0.3,0.2-0.5,0.4-0.8c0.2-0.3,0.4-0.5,0.6-0.8c1.8-1.8,4.7-1.8,6.5,0
		c0.2,0.2,0.4,0.5,0.6,0.8c0.1,0.2,0.2,0.5,0.3,0.8c0.1,0.3,0.2,0.7,0.2,1C86.9,16.4,86.9,16.7,86.9,17z M84.9,21
		c0.2-1.7,0.2-3.5,0-5.2c-0.2-1.2-1.2-2-2.4-2c-0.7,0-1.4,0.3-1.8,0.8c-0.3,0.3-0.5,0.8-0.6,1.2c-0.1,0.9-0.2,1.7-0.1,2.6
		c0,0.9,0,1.7,0.1,2.6c0.1,0.5,0.3,0.9,0.6,1.2c0.5,0.5,1.1,0.8,1.8,0.8C83.7,23,84.7,22.1,84.9,21L84.9,21z"/>
	<path class="st1" d="M102.8,12.2l-3.2,12.3h-1.6l-2.5-8.6l-2.5,8.6h-1.6l-3.2-12.3h2l2.1,8.8l2.5-8.8h1.5l2.5,8.8l2.1-8.8H102.8z"
		/>
</g>
</svg>
