<?xml version="1.0" encoding="utf-8"?>
<!-- Generator: Adobe Illustrator 22.1.0, SVG Export Plug-In . SVG Version: 6.00 Build 0)  -->
<svg version="1.1" id="Layer_1" xmlns="http://www.w3.org/2000/svg" xmlns:xlink="http://www.w3.org/1999/xlink" x="0px" y="0px"
	 viewBox="0 0 126.6 13.1" style="enable-background:new 0 0 126.6 13.1;" xml:space="preserve">
<style type="text/css">
	.st0{fill:#FFFFFF;}
</style>
<title>hex_tag</title>
<g>
	<path class="st0" d="M6.2,5.7L5.9,7.2h0.9v1.1H5.7l-0.4,2.5H4.1l0.4-2.5H2.8l-0.4,2.5H1.1l0.4-2.5H0.6V7.2h1.1L2,5.7H1V4.6h1.1
		l0.4-2.4h1.3L3.4,4.6H5l0.4-2.4h1.3L6.3,4.6h0.9v1.1H6.2z M3.2,5.7L3,7.2h1.6l0.2-1.5H3.2z"/>
	<path class="st0" d="M9,10.8V2.3h5.5v1.2h-4.2V6h3.6v1.2h-3.6v2.6h4.2V11H9V10.8z"/>
	<path class="st0" d="M20.6,10.8l-1.9-3.3l-1.9,3.3h-1.5L18,6.4l-2.5-4.2H17l1.7,3.1l1.7-3.1h1.5l-2.5,4.2l2.7,4.4H20.6z"/>
	<path class="st0" d="M26.4,3.4v7.4h-1.3V3.4h-2.4V2.3h6v1.2L26.4,3.4L26.4,3.4z"/>
	<path class="st0" d="M35,10.8l-1.8-3.6h-1.6v3.6h-1.3V2.3h3.3c1.6,0,2.7,1,2.7,2.5c0,1.2-0.7,2-1.7,2.3l2,3.8H35V10.8z M33.5,3.4
		h-1.9v2.7h1.9c0.9,0,1.5-0.5,1.5-1.3S34.4,3.4,33.5,3.4z"/>
	<path class="st0" d="M43.2,10.8l-0.6-1.7h-3.4l-0.6,1.7h-1.4l3.1-8.6h1l3.1,8.6H43.2z M41,4.2L39.7,8h2.6L41,4.2z"/>
	<path class="st0" d="M50.9,10c-0.6,0.6-1.3,0.9-2.3,0.9c-0.9,0-1.7-0.3-2.2-0.9c-0.8-0.8-0.8-1.8-0.8-3.4s0-2.6,0.8-3.4
		c0.6-0.6,1.3-0.9,2.2-0.9s1.7,0.3,2.3,0.9C51.7,4,51.7,5,51.7,6.6S51.7,9.1,50.9,10z M49.9,3.9c-0.3-0.3-0.8-0.5-1.3-0.5
		s-1,0.2-1.3,0.5c-0.4,0.5-0.5,0.9-0.5,2.7s0.1,2.2,0.5,2.7c0.3,0.3,0.8,0.5,1.3,0.5s1-0.2,1.3-0.5c0.4-0.5,0.5-0.9,0.5-2.7
		S50.3,4.4,49.9,3.9z"/>
	<path class="st0" d="M58.4,10.8l-1.8-3.6H55v3.6h-1.3V2.3H57c1.6,0,2.7,1,2.7,2.5c0,1.2-0.7,2-1.7,2.3l2,3.8h-1.6V10.8z M56.9,3.4
		H55v2.7h1.9c0.9,0,1.5-0.5,1.5-1.3S57.8,3.4,56.9,3.4z"/>
	<path class="st0" d="M66.9,10c-0.5,0.5-1.3,0.8-2.2,0.8h-3V2.3h3c0.9,0,1.7,0.3,2.2,0.8c0.9,0.9,0.9,2.2,0.9,3.4S67.9,9.1,66.9,10z
		 M66,4c-0.4-0.4-0.8-0.6-1.5-0.6H63v6.2h1.6c0.6,0,1.1-0.2,1.5-0.6c0.4-0.5,0.5-1.4,0.5-2.6S66.5,4.5,66,4z"/>
	<path class="st0" d="M69.8,10.8V2.3h1.3v8.6h-1.3V10.8z"/>
	<path class="st0" d="M78.7,10.8l-4-6v6h-1.3V2.3h1.2l4,6v-6h1.3v8.6h-1.2V10.8z"/>
	<path class="st0" d="M87.2,10.8l-0.6-1.7h-3.4l-0.6,1.7h-1.4l3.1-8.6h1l3.1,8.6H87.2z M85,4.2L83.6,8h2.6L85,4.2z"/>
	<path class="st0" d="M94.6,10.8l-1.8-3.6h-1.6v3.6h-1.3V2.3h3.3c1.6,0,2.7,1,2.7,2.5c0,1.2-0.7,2-1.7,2.3l2,3.8h-1.6V10.8z
		 M93.1,3.4h-1.9v2.7h1.9c0.9,0,1.5-0.5,1.5-1.3S94,3.4,93.1,3.4z"/>
	<path class="st0" d="M100.7,7.3v3.5h-1.3V7.3l-2.6-5h1.4l1.8,3.8l1.8-3.8h1.4L100.7,7.3z"/>
	<path class="st0" d="M109.8,10c-0.5,0.5-1.3,0.8-2.2,0.8h-3V2.3h3c0.9,0,1.7,0.3,2.2,0.8c0.9,0.9,0.9,2.2,0.9,3.4
		C110.7,7.7,110.7,9.1,109.8,10z M108.9,4c-0.4-0.4-0.8-0.6-1.5-0.6h-1.6v6.2h1.6c0.6,0,1.1-0.2,1.5-0.6c0.4-0.5,0.5-1.4,0.5-2.6
		S109.3,4.5,108.9,4z"/>
	<path class="st0" d="M116.8,10.8l-1.9-3.3l-1.9,3.3h-1.5l2.6-4.4l-2.5-4.2h1.5l1.7,3.1l1.7-3.1h1.5l-2.5,4.2l2.7,4.4H116.8z"/>
	<path class="st0" d="M123.1,10.8h-3.5V2.3h3.3c1.6,0,2.6,0.9,2.6,2.3c0,0.9-0.6,1.6-1.2,1.8c0.7,0.3,1.3,0.9,1.3,2
		C125.7,10,124.6,10.8,123.1,10.8z M122.9,3.4H121v2.5h1.9c0.8,0,1.4-0.4,1.4-1.2S123.7,3.4,122.9,3.4z M123,7.1h-2v2.6h2
		c0.9,0,1.4-0.6,1.4-1.3C124.4,7.6,123.9,7.1,123,7.1z"/>
</g>
</svg>
