<svg xmlns="http://www.w3.org/2000/svg" viewBox="0 0 212.09 14.13"><defs><style>.cls-1{fill:#fff;}</style></defs><title>txt2</title><g id="Layer_2" data-name="Layer 2"><g id="Layer_1-2" data-name="Layer 1"><path class="cls-1" d="M10.15,14V4.72L7,11.5H5.39L2.11,4.72V14H0V.12H2.11L6.17,8.76l4-8.64h2.11V14Z"/><path class="cls-1" d="M24,14l-1-2.79H17.6l-1,2.79H14.4L19.49.12h1.7L26.29,14ZM20.39,3.26,18.23,9.43H22.5Z"/><path class="cls-1" d="M35.28,14l-3-5.32-3,5.32H26.83l4.29-7.12L27.1.12h2.42l2.74,5L35,.12h2.42l-4,6.77L37.72,14Z"/><path class="cls-1" d="M39.92,14V.12H42V14Z"/><path class="cls-1" d="M56,14V4.72L52.8,11.5H51.24L48,4.72V14h-2.1V.12H48L52,8.76,56,.12h2.11V14Z"/><path class="cls-1" d="M66.68,14.13a4.71,4.71,0,0,1-5-4.8V.12h2.11V9.23a2.88,2.88,0,1,0,5.75,0V.12h2.11V9.33A4.72,4.72,0,0,1,66.68,14.13Z"/><path class="cls-1" d="M85.43,14V4.72l-3.2,6.78H80.67L77.39,4.72V14H75.28V.12h2.11l4.06,8.64,4-8.64h2.11V14Z"/><path class="cls-1" d="M100.73,2V14H98.62V2H94.79V.12h9.76V2Z"/><path class="cls-1" d="M114.89,14V7.94h-5.64V14h-2.1V.12h2.1V6.05h5.64V.12H117V14Z"/><path class="cls-1" d="M128.49,14l-2.92-5.85h-2.64V14h-2.11V.12h5.39a4,4,0,0,1,4.31,4.06,3.65,3.65,0,0,1-2.77,3.69L131,14ZM126.05,2h-3.12V6.36h3.12a2.12,2.12,0,0,0,2.37-2.16A2.14,2.14,0,0,0,126.05,2Z"/><path class="cls-1" d="M133.8,14V.12h2.11V14Z"/><path class="cls-1" d="M139.73,14V.12h2.11v12h6.69V14Z"/><path class="cls-1" d="M151.13,14V.12h2.11v12h6.69V14Z"/><path class="cls-1" d="M166.21,14.13a6.32,6.32,0,0,1-4.92-1.83l1.41-1.39a4.6,4.6,0,0,0,3.55,1.33c1.82,0,2.87-.78,2.87-2.13a1.85,1.85,0,0,0-.55-1.44,2.37,2.37,0,0,0-1.52-.59l-1.64-.23a4.73,4.73,0,0,1-2.63-1.12,3.42,3.42,0,0,1-1-2.65c0-2.42,1.76-4.08,4.65-4.08a5.79,5.79,0,0,1,4.31,1.58l-1.35,1.33a4.06,4.06,0,0,0-3-1.08c-1.64,0-2.54.94-2.54,2.17a1.66,1.66,0,0,0,.53,1.29,3.06,3.06,0,0,0,1.56.64l1.58.24a4.56,4.56,0,0,1,2.6,1,3.65,3.65,0,0,1,1.13,2.85C171.21,12.61,169.12,14.13,166.21,14.13Z"/><path class="cls-1" d="M183.62,2V14h-2.11V2h-3.82V.12h9.75V2Z"/><path class="cls-1" d="M196.85,14l-1-2.79h-5.48l-1,2.79h-2.24L192.3.12H194L199.09,14ZM193.2,3.26,191,9.43h4.28Z"/><path class="cls-1" d="M209.61,14l-3.9-6.85L203.36,10v4h-2.1V.12h2.1v7l5.68-7h2.58l-4.51,5.44,5,8.45Z"/></g></g></svg>