<svg xmlns="http://www.w3.org/2000/svg" viewBox="0 0 135.64 56.03"><defs><style>.cls-1{fill:#fff;}</style></defs><title>txt2</title><g id="Layer_2" data-name="Layer 2"><g id="Layer_1-2" data-name="Layer 1"><path class="cls-1" d="M38.93,12.21,38.1,9.77H33.32l-.83,2.44h-2L35,.1h1.48l4.43,12.11ZM35.75,2.84,33.86,8.21h3.73Z"/><path class="cls-1" d="M51.61,12.21V4.11L48.82,10H47.46l-2.85-5.9v8.1H42.77V.1h1.84l3.53,7.53L51.61.1h1.84V12.21Z"/><path class="cls-1" d="M63.71,12.21l-.83-2.44H58.1l-.83,2.44h-2L59.75.1h1.48l4.44,12.11ZM60.54,2.84,58.65,8.21h3.72Z"/><path class="cls-1" d="M66.79,12.21V10.62l5.59-8.87H67V.1h7.51V1.6l-5.62,9h5.62v1.65Z"/><path class="cls-1" d="M77.11,12.21V.1H79V12.21Z"/><path class="cls-1" d="M89.71,12.21l-5.6-8.52v8.52H82.28V.1H84l5.59,8.5V.1h1.84V12.21Z"/><path class="cls-1" d="M102,10.93a4.64,4.64,0,0,1-6.51.09c-1.19-1.19-1.17-2.54-1.17-4.87s0-3.67,1.17-4.86A4.36,4.36,0,0,1,98.63,0,4.25,4.25,0,0,1,103,3.76h-1.85a2.47,2.47,0,0,0-2.55-2.11,2.42,2.42,0,0,0-1.78.75c-.6.64-.73,1.32-.73,3.75s.13,3.13.73,3.78a2.4,2.4,0,0,0,1.78.73,2.56,2.56,0,0,0,2-.85,2.7,2.7,0,0,0,.62-1.91V7.22H98.63V5.66h4.42V7.51A4.53,4.53,0,0,1,102,10.93Z"/><path class="cls-1" d="M0,34.12V22H7.73v1.65H1.84V27.2h5v1.63h-5v3.64H7.73v1.65Z"/><path class="cls-1" d="M17.85,34.12,12.26,25.6v8.52H10.42V22H12.1l5.6,8.5V22h1.83V34.12Z"/><path class="cls-1" d="M27,23.66V34.12H25.12V23.66H21.79V22h8.5v1.65Z"/><path class="cls-1" d="M32.55,34.12V22h7.74v1.65h-5.9V27.2h5v1.63h-5v3.64h5.9v1.65Z"/><path class="cls-1" d="M49.66,34.12,47.11,29h-2.3v5.1H43V22h4.69a3.46,3.46,0,0,1,3.75,3.54A3.17,3.17,0,0,1,49,28.76l2.79,5.36ZM47.53,23.66H44.81v3.79h2.72a1.84,1.84,0,0,0,2.06-1.88A1.86,1.86,0,0,0,47.53,23.66Z"/><path class="cls-1" d="M58.38,23.66V34.12H56.54V23.66H53.21V22h8.5v1.65Z"/><path class="cls-1" d="M69.9,34.12l-.83-2.43H64.29l-.83,2.43h-2L65.94,22h1.48l4.44,12.11Zm-3.18-9.37-1.88,5.37h3.72Z"/><path class="cls-1" d="M73.75,34.12V22h1.83V34.12Z"/><path class="cls-1" d="M86.34,34.12,80.75,25.6v8.52H78.91V22H80.6l5.59,8.5V22H88V34.12Z"/><path class="cls-1" d="M100.2,34.12V26l-2.79,5.89H96.05L93.19,26v8.09H91.36V22h1.83l3.54,7.53L100.2,22H102V34.12Z"/><path class="cls-1" d="M105.35,34.12V22h7.73v1.65h-5.9V27.2h5v1.63h-5v3.64h5.9v1.65Z"/><path class="cls-1" d="M123.2,34.12l-5.6-8.52v8.52h-1.83V22h1.68l5.59,8.5V22h1.84V34.12Z"/><path class="cls-1" d="M132.31,23.66V34.12h-1.84V23.66h-3.33V22h8.5v1.65Z"/><path class="cls-1" d="M57.64,45.58V56H55.8V45.58H52.47V43.93H61v1.65Z"/><path class="cls-1" d="M69.16,56l-.83-2.43H63.55L62.72,56H60.77l4.43-12.1h1.48L71.12,56ZM66,46.66,64.1,52h3.72Z"/><path class="cls-1" d="M80.28,56l-3.4-6-2,2.45V56H73V43.93h1.83V50l5-6.08H82l-3.92,4.74L82.44,56Z"/></g></g></svg>