<svg id="FRAME_01" xmlns="http://www.w3.org/2000/svg" width="728" height="90" viewBox="0 15 728 90">
  <metadata><?xpacket begin="﻿" id="W5M0MpCehiHzreSzNTczkc9d"?>
<x:xmpmeta xmlns:x="adobe:ns:meta/" x:xmptk="Adobe XMP Core 5.6-c140 79.160451, 2017/05/06-01:08:21        ">
   <rdf:RDF xmlns:rdf="http://www.w3.org/1999/02/22-rdf-syntax-ns#">
      <rdf:Description rdf:about=""/>
   </rdf:RDF>
</x:xmpmeta>
                                                                                                    
                                                                                                    
                                                                                                    
                                                                                                    
                                                                                                    
                                                                                                    
                                                                                                    
                                                                                                    
                                                                                                    
                                                                                                    
                                                                                                    
                                                                                                    
                                                                                                    
                                                                                                    
                                                                                                    
                                                                                                    
                                                                                                    
                                                                                                    
                                                                                                    
                                                                                                    
                           
<?xpacket end="w"?></metadata>
<defs>
    <style>
      .cls-1 {
        fill: #fff;
        fill-rule: evenodd;
      }
    </style>
  </defs>
  <path id="Logo" class="cls-1" d="M631.234,45.007H620.77V71.117h10.464a5.226,5.226,0,0,0,5.229-5.222V50.229A5.227,5.227,0,0,0,631.234,45.007Zm0,15.666v2.611a2.615,2.615,0,0,1-2.615,2.611H626V50.229h2.615a2.615,2.615,0,0,1,2.616,2.611v7.833Zm65.382-15.666A2.614,2.614,0,0,0,694,47.618v23.5h2.617A2.614,2.614,0,0,0,699.23,68.5v-23.5h-2.614Zm-25,14.2a8.96,8.96,0,0,1-4.363,2.413,2.614,2.614,0,1,1-4.633,1.662V61.847h-5.23V68.5A2.614,2.614,0,0,0,660,71.117h5.232a7.83,7.83,0,0,0,6.573-12.108C671.742,59.077,671.678,59.143,671.612,59.209Zm-9-6.369a2.609,2.609,0,0,1,1.439-2.331v-5.5h-6.669v9.269h5.23V52.84Zm-18.3,2.482V45.007h-2.618a2.611,2.611,0,0,0-2.614,2.611v6.658h2.614A3.8,3.8,0,0,1,644.311,55.322Zm10.46-1.047V47.618a2.614,2.614,0,0,0-2.615-2.611h-2.615V55.322a3.776,3.776,0,0,1,2.615-1.047h2.615Zm20.922,16.842h2.614a2.613,2.613,0,0,0,2.615-2.613V61.847h-5.229v9.271Zm5.229-16.84V51.4h0V47.618a3.771,3.771,0,0,1,1.048-2.611h-1.048a5.228,5.228,0,0,0-5.229,5.222v5.093a3.785,3.785,0,0,1,2.614-1.047Zm5.326,7.569h-0.093V68.5a2.613,2.613,0,0,0,2.613,2.613h2.617V59.142A6.413,6.413,0,0,1,686.248,61.847Zm-21.015-16.84v5.222a2.61,2.61,0,1,1,0,5.221H652.156a2.615,2.615,0,0,0-2.615,2.614v7.832h-2.617a2.612,2.612,0,0,1-2.613-2.61V58.062a2.617,2.617,0,0,0-2.618-2.613h-2.614V65.895a5.227,5.227,0,0,0,5.232,5.222h5.23a5.227,5.227,0,0,0,5.23-5.222V60.673h10.462A7.833,7.833,0,1,0,665.233,45.007Zm1.455,18.234a1.437,1.437,0,0,0-1.44-1.436H663.81V63.24A1.439,1.439,0,0,0,666.688,63.24Zm-17.91,8.885H647.34v1.435A1.439,1.439,0,1,0,648.778,72.126Zm-3.859,0h-1.44v1.435A1.439,1.439,0,1,0,644.919,72.126Zm41.236-27.119h-1.442a2.613,2.613,0,0,0-2.615,2.611v2.61l1.44,0a2.611,2.611,0,1,1,0,5.222l-5.231,0a2.615,2.615,0,0,0-2.614,2.613v2.611h10.462a5.227,5.227,0,0,0,5.23-5.223V50.228A5.227,5.227,0,0,0,686.155,45.007Z"/>
</svg>
