<svg xmlns="http://www.w3.org/2000/svg" viewBox="0 0 254.14 14.13"><defs><style>.cls-1{fill:#fff;}</style></defs><title>txt1</title><g id="Layer_2" data-name="Layer 2"><g id="Layer_1-2" data-name="Layer 1"><path class="cls-1" d="M5,14.13a4.71,4.71,0,0,1-5-4.8V.12H2.11V9.23a2.74,2.74,0,0,0,2.87,3,2.76,2.76,0,0,0,2.89-3V.12H10V9.33A4.72,4.72,0,0,1,5,14.13Z"/><path class="cls-1" d="M22.11,14,15.69,4.24V14H13.58V.12h1.93l6.42,9.76V.12H24V14Z"/><path class="cls-1" d="M27.86,14V.12H30v12h6.7V14Z"/><path class="cls-1" d="M39.26,14V.12h2.11V14Z"/><path class="cls-1" d="M55.34,14V4.72l-3.2,6.78H50.58L47.3,4.72V14H45.19V.12H47.3l4.06,8.64,4-8.64h2.11V14Z"/><path class="cls-1" d="M61.25,14V.12h2.11V14Z"/><path class="cls-1" d="M71.89,2V14H69.78V2H66V.12h9.76V2Z"/><path class="cls-1" d="M78.31,14V.12h8.88V2H80.41V6.07h5.78V7.94H80.41v4.18h6.78V14Z"/><path class="cls-1" d="M98.74,12.71A5,5,0,0,1,95.15,14H90.27V.12h4.88a5,5,0,0,1,3.59,1.3c1.5,1.51,1.4,3.54,1.4,5.55S100.24,11.2,98.74,12.71ZM97.29,3A3,3,0,0,0,94.93,2H92.38V12.12h2.55a3,3,0,0,0,2.36-.94C98,10.38,98,8.88,98,7S98,3.75,97.29,3Z"/><path class="cls-1" d="M111.83,14.13a6.32,6.32,0,0,1-4.92-1.83l1.41-1.39a4.59,4.59,0,0,0,3.55,1.33c1.81,0,2.87-.78,2.87-2.13a1.85,1.85,0,0,0-.55-1.44,2.37,2.37,0,0,0-1.52-.59L111,7.85a4.8,4.8,0,0,1-2.64-1.12,3.45,3.45,0,0,1-1-2.65C107.38,1.66,109.14,0,112,0a5.8,5.8,0,0,1,4.32,1.58L115,2.91a4.08,4.08,0,0,0-3-1.08c-1.64,0-2.54.94-2.54,2.17A1.62,1.62,0,0,0,110,5.29a3,3,0,0,0,1.56.64l1.58.24a4.5,4.5,0,0,1,2.59,1,3.66,3.66,0,0,1,1.14,2.85C116.83,12.61,114.74,14.13,111.83,14.13Z"/><path class="cls-1" d="M124.61,14.13a4.71,4.71,0,0,1-5-4.8V.12h2.11V9.23a2.88,2.88,0,1,0,5.76,0V.12h2.11V9.33A4.73,4.73,0,0,1,124.61,14.13Z"/><path class="cls-1" d="M140.88,14,138,8.16h-2.64V14h-2.11V.12h5.39a4,4,0,0,1,4.31,4.06,3.65,3.65,0,0,1-2.77,3.69l3.2,6.14ZM138.45,2h-3.13V6.36h3.13a2.12,2.12,0,0,0,2.36-2.16A2.13,2.13,0,0,0,138.45,2Z"/><path class="cls-1" d="M151.46,8.55H148.3V14h-2.11V.12h5.27a4.13,4.13,0,0,1,4.45,4.21A4.14,4.14,0,0,1,151.46,8.55ZM151.34,2h-3V6.64h3a2.22,2.22,0,0,0,2.46-2.31A2.23,2.23,0,0,0,151.34,2Z"/><path class="cls-1" d="M166.33,14,163.4,8.16h-2.63V14h-2.11V.12h5.39a4,4,0,0,1,4.31,4.06,3.65,3.65,0,0,1-2.77,3.69l3.2,6.14ZM163.89,2h-3.12V6.36h3.12a2.11,2.11,0,0,0,2.36-2.16A2.13,2.13,0,0,0,163.89,2Z"/><path class="cls-1" d="M171.64,14V.12h2.1V14Z"/><path class="cls-1" d="M181.26,14.13a6.32,6.32,0,0,1-4.92-1.83l1.4-1.39a4.62,4.62,0,0,0,3.56,1.33c1.81,0,2.86-.78,2.86-2.13a1.85,1.85,0,0,0-.54-1.44,2.37,2.37,0,0,0-1.52-.59l-1.64-.23a4.77,4.77,0,0,1-2.64-1.12,3.45,3.45,0,0,1-1-2.65c0-2.42,1.75-4.08,4.64-4.08a5.78,5.78,0,0,1,4.31,1.58l-1.34,1.33a4.1,4.1,0,0,0-3-1.08c-1.64,0-2.53.94-2.53,2.17a1.65,1.65,0,0,0,.52,1.29,3.06,3.06,0,0,0,1.56.64l1.58.24a4.53,4.53,0,0,1,2.6,1,3.65,3.65,0,0,1,1.13,2.85C186.25,12.61,184.16,14.13,181.26,14.13Z"/><path class="cls-1" d="M189.28,14V.12h8.88V2h-6.78V6.07h5.78V7.94h-5.78v4.18h6.78V14Z"/><path class="cls-1" d="M204.93,14.13A6.3,6.3,0,0,1,200,12.3l1.4-1.39A4.61,4.61,0,0,0,205,12.24c1.82,0,2.87-.78,2.87-2.13a1.85,1.85,0,0,0-.54-1.44,2.4,2.4,0,0,0-1.52-.59l-1.64-.23a4.77,4.77,0,0,1-2.64-1.12,3.45,3.45,0,0,1-1-2.65c0-2.42,1.75-4.08,4.64-4.08a5.78,5.78,0,0,1,4.31,1.58l-1.34,1.33a4.1,4.1,0,0,0-3-1.08c-1.64,0-2.53.94-2.53,2.17a1.65,1.65,0,0,0,.52,1.29,3.06,3.06,0,0,0,1.56.64l1.58.24a4.56,4.56,0,0,1,2.6,1,3.65,3.65,0,0,1,1.13,2.85C209.92,12.61,207.83,14.13,204.93,14.13Z"/><path class="cls-1" d="M221.32,14.13a6.32,6.32,0,0,1-4.92-1.83l1.4-1.39a4.62,4.62,0,0,0,3.56,1.33c1.81,0,2.87-.78,2.87-2.13a1.85,1.85,0,0,0-.55-1.44,2.37,2.37,0,0,0-1.52-.59l-1.64-.23a4.77,4.77,0,0,1-2.64-1.12,3.45,3.45,0,0,1-1-2.65c0-2.42,1.75-4.08,4.64-4.08a5.82,5.82,0,0,1,4.32,1.58l-1.35,1.33a4.1,4.1,0,0,0-3-1.08c-1.64,0-2.53.94-2.53,2.17a1.65,1.65,0,0,0,.52,1.29,3.06,3.06,0,0,0,1.56.64l1.59.24a4.53,4.53,0,0,1,2.59,1,3.65,3.65,0,0,1,1.13,2.85C226.31,12.61,224.23,14.13,221.32,14.13Z"/><path class="cls-1" d="M229.34,14V.12h8.88V2h-6.78V6.07h5.78V7.94h-5.78v4.18h6.78V14Z"/><path class="cls-1" d="M240.91,14V11.63h2.38V14Z"/><path class="cls-1" d="M246.33,14V11.63h2.38V14Z"/><path class="cls-1" d="M251.76,14V11.63h2.38V14Z"/></g></g></svg>