<svg xmlns="http://www.w3.org/2000/svg" viewBox="0 0 112.1 33.5"><defs><style>.cls-1{fill:#fff;}</style></defs><title>txt1</title><g id="Layer_2" data-name="Layer 2"><g id="Layer_1-2" data-name="Layer 1"><path class="cls-1" d="M15.33,11.49V3.87L12.71,9.43H11.43L8.74,3.87v7.62H7V.1H8.74l3.33,7.09L15.33.1h1.73V11.49Z"/><path class="cls-1" d="M26.72,11.49,25.94,9.2h-4.5l-.78,2.29H18.82L23,.1h1.4l4.17,11.39Zm-3-8.82L22,7.73h3.51Z"/><path class="cls-1" d="M36.63,11.49l-2.4-4.8H32.06v4.8H30.34V.1h4.41a3.26,3.26,0,0,1,3.54,3.32,3,3,0,0,1-2.27,3l2.62,5Zm-2-9.84H32.06V5.22h2.57a1.73,1.73,0,0,0,1.93-1.78A1.74,1.74,0,0,0,34.63,1.65Z"/><path class="cls-1" d="M44.66,11.49H43.31L39.57.1h1.79L44,8.39,46.61.1h1.83Z"/><path class="cls-1" d="M50.16,11.49V.1h7.28V1.65H51.89V5h4.74V6.51H51.89V9.94h5.55v1.55Z"/><path class="cls-1" d="M60,11.49V.1H61.7V9.94h5.49v1.55Z"/><path class="cls-1" d="M69.31,11.49V.1H71V9.94h5.49v1.55Z"/><path class="cls-1" d="M84.93,10.37a4.08,4.08,0,0,1-3,1.22,4,4,0,0,1-3-1.22C77.81,9.25,77.82,8,77.82,5.79s0-3.45,1.11-4.57a4,4,0,0,1,3-1.22,4.08,4.08,0,0,1,3,1.22C86.05,2.34,86,3.6,86,5.79S86.05,9.25,84.93,10.37ZM83.62,2.26a2.39,2.39,0,0,0-3.4,0c-.56.6-.67,1.24-.67,3.53s.11,2.93.67,3.54a2.39,2.39,0,0,0,3.4,0c.56-.61.67-1.25.67-3.54S84.18,2.86,83.62,2.26Z"/><path class="cls-1" d="M92.64,11.59a3.87,3.87,0,0,1-4.08-3.94V.1h1.73V7.57a2.36,2.36,0,1,0,4.72,0V.1h1.73V7.65A3.88,3.88,0,0,1,92.64,11.59Z"/><path class="cls-1" d="M102.72,11.59a5.13,5.13,0,0,1-4-1.51L99.84,9A3.76,3.76,0,0,0,102.75,10c1.49,0,2.35-.64,2.35-1.75a1.52,1.52,0,0,0-.44-1.18,1.92,1.92,0,0,0-1.25-.48l-1.35-.2a3.84,3.84,0,0,1-2.16-.91,2.84,2.84,0,0,1-.83-2.18c0-2,1.44-3.34,3.81-3.34a4.74,4.74,0,0,1,3.54,1.3l-1.11,1.08a3.35,3.35,0,0,0-2.48-.88c-1.34,0-2.08.77-2.08,1.78a1.37,1.37,0,0,0,.43,1.06,2.64,2.64,0,0,0,1.28.53l1.3.19a3.71,3.71,0,0,1,2.13.85,3,3,0,0,1,.93,2.33C106.82,10.34,105.1,11.59,102.72,11.59Z"/><path class="cls-1" d="M10.61,33.4H9.11l-2.32-8-2.31,8H3L0,22H1.82l2,8.15L6.1,22H7.49l2.29,8.15,2-8.15h1.83Z"/><path class="cls-1" d="M21.94,32.28a4.1,4.1,0,0,1-3,1.22,4,4,0,0,1-3-1.22c-1.12-1.12-1.11-2.38-1.11-4.57s0-3.46,1.11-4.58a4,4,0,0,1,3-1.22,4.1,4.1,0,0,1,3,1.22C23.06,24.25,23,25.51,23,27.71S23.06,31.16,21.94,32.28Zm-1.31-8.11a2.39,2.39,0,0,0-3.4,0c-.56.61-.67,1.25-.67,3.54s.11,2.92.67,3.53a2.39,2.39,0,0,0,3.4,0c.56-.61.67-1.24.67-3.53S21.19,24.78,20.63,24.17Z"/><path class="cls-1" d="M32.74,33.4l-5.27-8v8H25.74V22h1.59l5.26,8V22h1.73V33.4Z"/><path class="cls-1" d="M44.4,32.33a4.06,4.06,0,0,1-2.94,1.07h-4V22h4a4.06,4.06,0,0,1,2.94,1.07c1.23,1.23,1.15,2.9,1.15,4.55S45.63,31.1,44.4,32.33Zm-1.18-8a2.46,2.46,0,0,0-1.94-.77h-2.1v8.29h2.1a2.46,2.46,0,0,0,1.94-.77c.59-.65.61-1.89.61-3.45S43.81,25,43.22,24.33Z"/><path class="cls-1" d="M48.27,33.4V22h7.28v1.55H50v3.33h4.74v1.54H50v3.42h5.55V33.4Z"/><path class="cls-1" d="M64.37,33.4,62,28.6H59.81v4.8H58.08V22H62.5A3.25,3.25,0,0,1,66,25.34a3,3,0,0,1-2.27,3l2.63,5Zm-2-9.84H59.81v3.57h2.56a1.79,1.79,0,1,0,0-3.57Z"/><path class="cls-1" d="M71.74,33.5a5.17,5.17,0,0,1-4-1.5l1.15-1.14A3.79,3.79,0,0,0,71.78,32c1.49,0,2.35-.64,2.35-1.75A1.51,1.51,0,0,0,73.68,29a2,2,0,0,0-1.25-.48l-1.34-.19a3.85,3.85,0,0,1-2.16-.92,2.81,2.81,0,0,1-.84-2.17c0-2,1.45-3.35,3.81-3.35a4.75,4.75,0,0,1,3.54,1.3l-1.1,1.09a3.32,3.32,0,0,0-2.48-.88c-1.35,0-2.08.76-2.08,1.77a1.33,1.33,0,0,0,.43,1.06,2.51,2.51,0,0,0,1.28.53l1.29.19a3.78,3.78,0,0,1,2.13.85,3,3,0,0,1,.93,2.34C75.84,32.25,74.13,33.5,71.74,33.5Z"/><path class="cls-1" d="M85.18,33.5a5.17,5.17,0,0,1-4-1.5l1.15-1.14A3.78,3.78,0,0,0,85.22,32c1.48,0,2.35-.64,2.35-1.75A1.54,1.54,0,0,0,87.12,29a2,2,0,0,0-1.25-.48l-1.34-.19a3.85,3.85,0,0,1-2.16-.92,2.81,2.81,0,0,1-.84-2.17c0-2,1.44-3.35,3.81-3.35a4.76,4.76,0,0,1,3.54,1.3l-1.1,1.09a3.32,3.32,0,0,0-2.48-.88c-1.35,0-2.09.76-2.09,1.77a1.34,1.34,0,0,0,.44,1.06,2.51,2.51,0,0,0,1.28.53l1.29.19a3.78,3.78,0,0,1,2.13.85,3,3,0,0,1,.93,2.34C89.28,32.25,87.57,33.5,85.18,33.5Z"/><path class="cls-1" d="M91.76,33.4V22H99v1.55H93.49v3.33h4.74v1.54H93.49v3.42H99V33.4Z"/><path class="cls-1" d="M101.25,33.4V31.45h2V33.4Z"/><path class="cls-1" d="M105.69,33.4V31.45h2V33.4Z"/><path class="cls-1" d="M110.14,33.4V31.45h2V33.4Z"/></g></g></svg>