<svg xmlns="http://www.w3.org/2000/svg" viewBox="0 0 120.02 34.22"><defs><style>.cls-1{fill:#fff;}</style></defs><title>txt1</title><g id="Layer_2" data-name="Layer 2"><g id="Layer_1-2" data-name="Layer 1"><path class="cls-1" d="M25.92,11.07a4.35,4.35,0,0,1-3.13,1.14H18.54V.1h4.25a4.35,4.35,0,0,1,3.13,1.14c1.31,1.31,1.22,3.08,1.22,4.83S27.23,9.76,25.92,11.07Zm-1.26-8.5a2.63,2.63,0,0,0-2.06-.82H20.37v8.81H22.6a2.63,2.63,0,0,0,2.06-.82c.63-.7.64-2,.64-3.67S25.29,3.26,24.66,2.57Z"/><path class="cls-1" d="M30,12.21V.1h7.73V1.75H31.87V5.29h5V6.92h-5v3.64h5.89v1.65Z"/><path class="cls-1" d="M40.45,12.21V.1h1.84V10.56h5.83v1.65Z"/><path class="cls-1" d="M50.38,12.21V.1h1.83V12.21Z"/><path class="cls-1" d="M59.46,12.31A4.39,4.39,0,0,1,56.28,11C55.09,9.83,55.1,8.48,55.1,6.15s0-3.67,1.18-4.86A4.39,4.39,0,0,1,59.46,0a4.16,4.16,0,0,1,4.31,3.72H61.9a2.5,2.5,0,0,0-4.23-1.34c-.59.65-.73,1.34-.73,3.77s.14,3.13.73,3.78a2.52,2.52,0,0,0,4.25-1.35h1.85A4.17,4.17,0,0,1,59.46,12.31Z"/><path class="cls-1" d="M66.39,12.21V.1h1.84V12.21Z"/><path class="cls-1" d="M78.67,11a4.4,4.4,0,0,1-3.2,1.29A4.34,4.34,0,0,1,72.29,11c-1.19-1.19-1.17-2.54-1.17-4.87s0-3.67,1.17-4.86A4.34,4.34,0,0,1,75.47,0a4.4,4.4,0,0,1,3.2,1.29c1.19,1.19,1.15,2.54,1.15,4.86S79.86,9.83,78.67,11ZM77.27,2.4a2.54,2.54,0,0,0-3.6,0C73.07,3,73,3.72,73,6.15s.12,3.11.72,3.76a2.53,2.53,0,0,0,3.6,0c.6-.65.72-1.33.72-3.76S77.87,3,77.27,2.4Z"/><path class="cls-1" d="M86.86,12.31a4.11,4.11,0,0,1-4.33-4.18V.1h1.83V8a2.51,2.51,0,1,0,5,0V.1h1.83v8A4.12,4.12,0,0,1,86.86,12.31Z"/><path class="cls-1" d="M97.57,12.31a5.47,5.47,0,0,1-4.28-1.6L94.51,9.5a4,4,0,0,0,3.09,1.16c1.58,0,2.5-.68,2.5-1.85a1.64,1.64,0,0,0-.47-1.26A2.12,2.12,0,0,0,98.3,7l-1.43-.21a4,4,0,0,1-2.29-1,3,3,0,0,1-.89-2.31c0-2.1,1.53-3.55,4-3.55a5,5,0,0,1,3.76,1.38l-1.18,1.15a3.54,3.54,0,0,0-2.63-.93c-1.43,0-2.21.81-2.21,1.89a1.42,1.42,0,0,0,.46,1.12,2.75,2.75,0,0,0,1.36.56l1.37.2a4,4,0,0,1,2.27.9,3.18,3.18,0,0,1,1,2.48C101.92,11,100.1,12.31,97.57,12.31Z"/><path class="cls-1" d="M1.84,23.66v3.69h5V29h-5v5.12H0V22H7.73v1.65Z"/><path class="cls-1" d="M10.11,34.12V22H12V32.47h5.83v1.65Z"/><path class="cls-1" d="M27,34.12l-.83-2.43H21.39l-.84,2.43H18.6L23,22h1.48L29,34.12Zm-3.17-9.37-1.89,5.37h3.72Z"/><path class="cls-1" d="M34.15,34.12H32.72L28.75,22h1.9l2.79,8.81L36.23,22h1.93Z"/><path class="cls-1" d="M46.94,32.93a4.4,4.4,0,0,1-3.2,1.29,4.34,4.34,0,0,1-3.18-1.29c-1.19-1.19-1.17-2.54-1.17-4.86s0-3.68,1.17-4.87a4.34,4.34,0,0,1,3.18-1.29,4.4,4.4,0,0,1,3.2,1.29c1.19,1.19,1.15,2.54,1.15,4.87S48.13,31.74,46.94,32.93Zm-1.4-8.62a2.53,2.53,0,0,0-3.6,0c-.6.65-.72,1.32-.72,3.76s.12,3.11.72,3.75a2.54,2.54,0,0,0,3.6,0c.6-.64.72-1.32.72-3.75S46.14,25,45.54,24.31Z"/><path class="cls-1" d="M55.13,34.22A4.1,4.1,0,0,1,50.8,30V22h1.83V30a2.51,2.51,0,1,0,5,0V22h1.83v8A4.12,4.12,0,0,1,55.13,34.22Z"/><path class="cls-1" d="M69.31,34.12,66.76,29h-2.3v5.1H62.63V22h4.69a3.46,3.46,0,0,1,3.75,3.54,3.17,3.17,0,0,1-2.41,3.21l2.79,5.36ZM67.18,23.66H64.46v3.79h2.72a1.84,1.84,0,0,0,2.06-1.88A1.86,1.86,0,0,0,67.18,23.66Z"/><path class="cls-1" d="M77.14,34.22a5.5,5.5,0,0,1-4.28-1.6l1.22-1.21a4,4,0,0,0,3.1,1.16c1.58,0,2.5-.68,2.5-1.85a1.64,1.64,0,0,0-.48-1.26A2.06,2.06,0,0,0,77.88,29l-1.43-.2a4.21,4.21,0,0,1-2.3-1,3,3,0,0,1-.88-2.32c0-2.1,1.53-3.55,4-3.55a5,5,0,0,1,3.76,1.38L79.9,24.45a3.55,3.55,0,0,0-2.64-.94c-1.42,0-2.21.82-2.21,1.89a1.45,1.45,0,0,0,.46,1.12,2.7,2.7,0,0,0,1.36.56l1.38.2a4.07,4.07,0,0,1,2.26.9,3.2,3.2,0,0,1,1,2.49C81.5,32.89,79.68,34.22,77.14,34.22Z"/><path class="cls-1" d="M91.42,34.22a5.49,5.49,0,0,1-4.28-1.6l1.22-1.21a4,4,0,0,0,3.1,1.16c1.58,0,2.5-.68,2.5-1.85a1.64,1.64,0,0,0-.48-1.26A2.09,2.09,0,0,0,92.15,29l-1.42-.2a4.21,4.21,0,0,1-2.3-1,3,3,0,0,1-.88-2.32c0-2.1,1.53-3.55,4-3.55a5,5,0,0,1,3.76,1.38l-1.17,1.16a3.55,3.55,0,0,0-2.64-.94c-1.42,0-2.21.82-2.21,1.89a1.45,1.45,0,0,0,.46,1.12,2.7,2.7,0,0,0,1.36.56l1.38.2a4.07,4.07,0,0,1,2.26.9,3.2,3.2,0,0,1,1,2.49C95.78,32.89,94,34.22,91.42,34.22Z"/><path class="cls-1" d="M98.41,34.12V22h7.74v1.65h-5.9V27.2h5v1.63h-5v3.64h5.9v1.65Z"/><path class="cls-1" d="M108.49,34.12V32h2.08v2.08Z"/><path class="cls-1" d="M113.22,34.12V32h2.07v2.08Z"/><path class="cls-1" d="M117.94,34.12V32H120v2.08Z"/></g></g></svg>