<svg xmlns="http://www.w3.org/2000/svg" viewBox="0 0 128.37 55.32"><defs><style>.cls-1{fill:#fff;}</style></defs><title>txt2</title><g id="Layer_2" data-name="Layer 2"><g id="Layer_1-2" data-name="Layer 1"><path class="cls-1" d="M4.08,11.59A3.87,3.87,0,0,1,0,7.65V.1H1.73V7.57A2.25,2.25,0,0,0,4.08,10,2.26,2.26,0,0,0,6.45,7.57V.1H8.18V7.65A3.88,3.88,0,0,1,4.08,11.59Z"/><path class="cls-1" d="M18.13,11.49l-5.26-8v8H11.14V.1h1.58L18,8.1V.1h1.73V11.49Z"/><path class="cls-1" d="M24.58,1.65V5.12h4.73V6.67H24.58v4.82H22.85V.1h7.28V1.65Z"/><path class="cls-1" d="M38.74,10.37a4.1,4.1,0,0,1-3,1.22,4,4,0,0,1-3-1.22C31.62,9.25,31.63,8,31.63,5.79s0-3.45,1.11-4.57a4,4,0,0,1,3-1.22,4.1,4.1,0,0,1,3,1.22c1.12,1.12,1.09,2.38,1.09,4.57S39.86,9.25,38.74,10.37ZM37.43,2.26a2.39,2.39,0,0,0-3.4,0c-.56.6-.67,1.24-.67,3.53s.11,2.93.67,3.54a2.39,2.39,0,0,0,3.4,0c.56-.61.67-1.25.67-3.54S38,2.86,37.43,2.26Z"/><path class="cls-1" d="M48.83,11.49l-2.4-4.8H44.27v4.8H42.54V.1H47A3.26,3.26,0,0,1,50.5,3.42a3,3,0,0,1-2.27,3l2.62,5Zm-2-9.84H44.27V5.22h2.56a1.74,1.74,0,0,0,1.94-1.78A1.74,1.74,0,0,0,46.83,1.65Z"/><path class="cls-1" d="M60,10.29a4.36,4.36,0,0,1-6.13.08c-1.12-1.12-1.1-2.38-1.1-4.58s0-3.45,1.1-4.57a4.07,4.07,0,0,1,3-1.22A4,4,0,0,1,61,3.54H59.27a2.34,2.34,0,0,0-2.41-2,2.27,2.27,0,0,0-1.68.71c-.56.6-.68,1.24-.68,3.53s.12,3,.68,3.56a2.29,2.29,0,0,0,1.68.69,2.42,2.42,0,0,0,1.86-.8,2.59,2.59,0,0,0,.58-1.8V6.8H56.86V5.33H61V7.07A4.27,4.27,0,0,1,60,10.29Z"/><path class="cls-1" d="M63.73,11.49V.1H71V1.65H65.46V5h4.73V6.51H65.46V9.94H71v1.55Z"/><path class="cls-1" d="M77.39,1.65v9.84H75.66V1.65H72.53V.1h8V1.65Z"/><path class="cls-1" d="M86.51,1.65v9.84H84.78V1.65H81.65V.1h8V1.65Z"/><path class="cls-1" d="M97.36,11.49,96.58,9.2h-4.5l-.79,2.29H89.45L93.63.1H95L99.2,11.49Zm-3-8.82L92.59,7.73H96.1Z"/><path class="cls-1" d="M105.58,11.49H101V.1h4.44c2.11,0,3.44,1.2,3.44,3.12a2.57,2.57,0,0,1-1.54,2.41A2.72,2.72,0,0,1,109,8.27C109,10.37,107.6,11.49,105.58,11.49Zm-.32-9.84H102.7V4.91h2.56c1.11,0,1.86-.57,1.86-1.63S106.37,1.65,105.26,1.65Zm.16,4.82H102.7V9.94h2.72A1.7,1.7,0,0,0,107.3,8.2,1.69,1.69,0,0,0,105.42,6.47Z"/><path class="cls-1" d="M111.74,11.49V.1h1.73V9.94H119v1.55Z"/><path class="cls-1" d="M121.09,11.49V.1h7.28V1.65h-5.55V5h4.73V6.51h-4.73V9.94h5.55v1.55Z"/><path class="cls-1" d="M11.43,33.5a4.1,4.1,0,0,1-3-1.22c-1.12-1.12-1.1-2.38-1.1-4.57s0-3.46,1.1-4.58a4.1,4.1,0,0,1,3-1.22,3.92,3.92,0,0,1,4.07,3.51H13.74a2.36,2.36,0,0,0-4-1.27c-.56.61-.69,1.27-.69,3.56s.13,2.94.69,3.55a2.37,2.37,0,0,0,4-1.26H15.5A3.93,3.93,0,0,1,11.43,33.5Z"/><path class="cls-1" d="M18,33.4V22h7.28v1.55H19.69v3.33h4.74v1.54H19.69v3.42h5.55V33.4Z"/><path class="cls-1" d="M27.77,33.4V22H29.5v9.84H35V33.4Z"/><path class="cls-1" d="M37.11,33.4V22h7.28v1.55H38.84v3.33h4.74v1.54H38.84v3.42h5.55V33.4Z"/><path class="cls-1" d="M51.53,33.4H46.92V22h4.43c2.12,0,3.44,1.2,3.44,3.12a2.59,2.59,0,0,1-1.53,2.42A2.71,2.71,0,0,1,55,30.19C55,32.28,53.55,33.4,51.53,33.4Zm-.32-9.84H48.65v3.27h2.56c1.1,0,1.86-.58,1.86-1.64S52.31,23.56,51.21,23.56Zm.16,4.82H48.65v3.47h2.72a1.74,1.74,0,1,0,0-3.47Z"/><path class="cls-1" d="M64,33.4l-2.4-4.8H59.42v4.8H57.69V22H62.1a3.26,3.26,0,0,1,3.54,3.33,3,3,0,0,1-2.27,3l2.62,5Zm-2-9.84H59.42v3.57H62a1.79,1.79,0,1,0,0-3.57Z"/><path class="cls-1" d="M74.87,33.4l-.78-2.28h-4.5l-.78,2.28H67L71.14,22h1.4L76.71,33.4Zm-3-8.82L70.1,29.64h3.51Z"/><path class="cls-1" d="M81.38,23.56V33.4H79.66V23.56H76.52V22h8v1.55Z"/><path class="cls-1" d="M86.65,33.4V22h1.73V33.4Z"/><path class="cls-1" d="M98.2,32.28a4.3,4.3,0,0,1-6,0c-1.12-1.12-1.11-2.38-1.11-4.57s0-3.46,1.11-4.58a4.3,4.3,0,0,1,6,0c1.12,1.12,1.09,2.38,1.09,4.58S99.32,31.16,98.2,32.28Zm-1.31-8.11a2.38,2.38,0,0,0-3.39,0c-.56.61-.68,1.25-.68,3.54s.12,2.92.68,3.53a2.38,2.38,0,0,0,3.39,0c.56-.61.67-1.24.67-3.53S97.45,24.78,96.89,24.17Z"/><path class="cls-1" d="M109,33.4l-5.26-8v8H102V22h1.58l5.27,8V22h1.73V33.4Z"/><path class="cls-1" d="M116.74,33.5a5.17,5.17,0,0,1-4-1.5l1.15-1.14A3.78,3.78,0,0,0,116.78,32c1.48,0,2.35-.64,2.35-1.75a1.54,1.54,0,0,0-.45-1.18,2,2,0,0,0-1.25-.48l-1.34-.19a3.85,3.85,0,0,1-2.16-.92,2.81,2.81,0,0,1-.84-2.17c0-2,1.44-3.35,3.81-3.35a4.76,4.76,0,0,1,3.54,1.3l-1.1,1.09a3.32,3.32,0,0,0-2.48-.88c-1.35,0-2.09.76-2.09,1.77a1.34,1.34,0,0,0,.44,1.06,2.51,2.51,0,0,0,1.28.53l1.29.19a3.78,3.78,0,0,1,2.13.85,3,3,0,0,1,.93,2.34C120.84,32.25,119.13,33.5,116.74,33.5Z"/><path class="cls-1" d="M54.89,45.47v9.85H53.16V45.47H50V43.92h8v1.55Z"/><path class="cls-1" d="M65.74,55.32,65,53H60.46l-.79,2.29H57.83L62,43.92H63.4l4.18,11.4Zm-3-8.82-1.78,5h3.5Z"/><path class="cls-1" d="M76.2,55.32,73,49.7,71.08,52v3.32H69.35V43.92h1.73v5.73l4.66-5.73h2.11l-3.7,4.47,4.08,6.93Z"/></g></g></svg>